<svg fill="#d7717f" xmlns="http://www.w3.org/2000/svg" viewBox="0 0 48 42.41">
    <path d="M44.5,4.17a12.09,12.09,0,0,0-19.3,1.39A18.4,18.4,0,0,0,24,7.49a18.39,18.39,0,0,0-1.19-1.94A12.09,12.09,0,0,0,3.5,4.17,14.55,14.55,0,0,0,0,13.83c0,4,1.56,7.71,4.91,11.69,3,3.56,7.3,7.23,12.28,11.47C19,38.58,21,40.21,23,42l.06.05a1.41,1.41,0,0,0,1.85,0L25,42c2-1.79,4-3.43,5.82-5,5-4.25,9.29-7.92,12.28-11.47,3.35-4,4.91-7.7,4.91-11.69A14.55,14.55,0,0,0,44.5,4.17ZM29,34.85c-1.6,1.36-3.25,2.77-5,4.28-1.74-1.51-3.39-2.91-5-4.28C9.26,26.54,2.81,21,2.81,13.83A11.74,11.74,0,0,1,5.61,6a9.39,9.39,0,0,1,7.14-3.21,9.48,9.48,0,0,1,7.76,4.37,16.67,16.67,0,0,1,2.15,4.28,1.41,1.41,0,0,0,2.67,0,16.67,16.67,0,0,1,2.15-4.28A9.28,9.28,0,0,1,42.39,6a11.74,11.74,0,0,1,2.8,7.8C45.19,21,38.74,26.54,29,34.85Z"/>
</svg>